<svg viewBox="0 0 24 24" width="32" height="32" xmlns="http://www.w3.org/2000/svg">
  <!-- 使用纯品牌蓝背景，确保在所有浏览器标签页显示稳定性 -->
  <rect width="24" height="24" rx="6" fill="#2563eb" />
  <path d="M19,13.5 A1.5,1.5 0 0,0 20.5,12 C20.5,8 16.5,6 12,6 C7.5,6 4.5,9 4.5,13.5 C4.5,14 4.8,14.5 5.2,14.5 L7.5,14.5 L7.5,18 A1.2,1.2 0 0,0 9.9,18 L9.9,14.5 L11.5,14.5 L11.5,18 A1.2,1.2 0 0,0 13.9,18 L13.9,12.5 C13.9,11.5 14.5,10.5 15.5,10.5 C16.5,10.5 17,11.5 17,12.5 L17,17 A2,2 0 0,0 19,19 C20.5,19 21,18 21,16 A1,1 0 0,0 19.5,17 C19,17 18.5,16.5 18.5,16 L18.5,12.5 L19,13.5 Z" fill="#ffffff" />
  <circle cx="10" cy="10" r="1.2" fill="#2563eb" />
</svg>
