<svg viewBox="0 0 512 512" xmlns="http://www.w3.org/2000/svg">
  <defs>
    <linearGradient id="logoGrad" x1="0%" y1="0%" x2="100%" y2="100%">
      <stop offset="0%" stopColor="#2563eb" />
      <stop offset="100%" stopColor="#10b981" />
    </linearGradient>
  </defs>
  
  <!-- 小象主体：放大并保持几何纯粹感 -->
  <path d="M405.3,288 C405.3,275.3 416,268 437.3,256 C437.3,170.7 352,128 256,128 C158,128 96,192 96,288 C96,298.7 102.4,309.3 110.9,309.3 L160,309.3 L160,384 C160,397.3 176,405.3 186.7,405.3 L211.2,405.3 L211.2,309.3 L245.3,309.3 L245.3,405.3 L296,405.3 L296,288 C296,266.7 309.3,245.3 330.7,245.3 C352,245.3 362.7,266.7 362.7,288 L362.7,384 C362.7,394.7 373.3,405.3 405.3,405.3 C437.3,405.3 448,384 448,341.3 C448,320 437.3,320 416,330.7 C405.3,336 405.3,325.3 405.3,314.7 L405.3,288 Z" fill="url(#logoGrad)" />
  
  <!-- 小象眼睛：镂空效果 -->
  <circle cx="213" cy="213" r="25.6" fill="#ffffff" />
</svg>
